<mxfile host="65bd71144e">
    <diagram id="8eDVTS0hQx05EgAAORFM" name="ページ1">
        <mxGraphModel dx="666" dy="371" grid="1" gridSize="10" guides="1" tooltips="1" connect="1" arrows="1" fold="1" page="1" pageScale="1" pageWidth="827" pageHeight="1169" math="0" shadow="0">
            <root>
                <mxCell id="0"/>
                <mxCell id="1" parent="0"/>
                <mxCell id="2" value="&lt;br&gt;" style="html=1;fillColor=none;" vertex="1" parent="1">
                    <mxGeometry x="40" y="60" width="330" height="240" as="geometry"/>
                </mxCell>
                <mxCell id="3" value="・Report" style="html=1;fontColor=none;fillColor=none;align=left;verticalAlign=top;" vertex="1" parent="1">
                    <mxGeometry x="40" y="80" width="60" height="220" as="geometry"/>
                </mxCell>
                <mxCell id="4" value="Poker log" style="html=1;fontColor=none;fillColor=none;align=left;verticalAlign=middle;" vertex="1" parent="1">
                    <mxGeometry x="40" y="60" width="330" height="20" as="geometry"/>
                </mxCell>
                <mxCell id="5" value="&lt;br&gt;" style="html=1;fillColor=none;" vertex="1" parent="1">
                    <mxGeometry x="400" y="60" width="330" height="240" as="geometry"/>
                </mxCell>
                <mxCell id="6" value="Poker log&lt;br&gt;&lt;br&gt;・Report" style="html=1;fontColor=none;fillColor=none;align=left;verticalAlign=top;" vertex="1" parent="1">
                    <mxGeometry x="400" y="60" width="60" height="240" as="geometry"/>
                </mxCell>
                <mxCell id="7" value="Report" style="html=1;fontColor=none;fillColor=none;align=left;verticalAlign=middle;" vertex="1" parent="1">
                    <mxGeometry x="460" y="60" width="270" height="20" as="geometry"/>
                </mxCell>
                <mxCell id="8" value="Today" style="html=1;fontColor=none;fillColor=none;align=left;verticalAlign=top;" vertex="1" parent="1">
                    <mxGeometry x="100" y="130" width="270" height="50" as="geometry"/>
                </mxCell>
                <mxCell id="11" value="Yesterday" style="html=1;fontColor=none;fillColor=none;align=left;verticalAlign=top;" vertex="1" parent="1">
                    <mxGeometry x="100" y="210" width="270" height="50" as="geometry"/>
                </mxCell>
                <mxCell id="13" value="+ 今日の成績を追加" style="html=1;fontColor=none;fillColor=none;align=left;" vertex="1" parent="1">
                    <mxGeometry x="110" y="90" width="130" height="20" as="geometry"/>
                </mxCell>
            </root>
        </mxGraphModel>
    </diagram>
</mxfile>